<svg version="1.1" baseProfile="full" viewBox="0 0 600 600" xmlns="http://www.w3.org/2000/svg">
           <line x1="500" x2="441" y1="300" y2="441" stroke="hsl(81, 100%, 50%)" stroke-width="1" stroke-dasharray="" xmlns="http://www.w3.org/2000/svg"></line><line x1="456" x2="454" y1="406" y2="402" stroke="black" stroke-width="1" stroke-dasharray="" xmlns="http://www.w3.org/2000/svg"></line><line x1="456" x2="459" y1="406" y2="404" stroke="black" stroke-width="1" stroke-dasharray="" xmlns="http://www.w3.org/2000/svg"></line><text x="485" y="335">a1</text><line x1="441" x2="300" y1="441" y2="500" stroke="hsl(0, 100%, 50%)" stroke-width="1" stroke-dasharray="" xmlns="http://www.w3.org/2000/svg"></line><line x1="335" x2="336" y1="485" y2="481" stroke="black" stroke-width="1" stroke-dasharray="" xmlns="http://www.w3.org/2000/svg"></line><line x1="335" x2="339" y1="485" y2="486" stroke="black" stroke-width="1" stroke-dasharray="" xmlns="http://www.w3.org/2000/svg"></line><text x="406" y="456">b1</text><line x1="158" x2="300" y1="441" y2="500" stroke="hsl(81, 100%, 50%)" stroke-width="1" stroke-dasharray="" xmlns="http://www.w3.org/2000/svg"></line><line x1="264" x2="260" y1="485" y2="486" stroke="black" stroke-width="1" stroke-dasharray="" xmlns="http://www.w3.org/2000/svg"></line><line x1="264" x2="263" y1="485" y2="481" stroke="black" stroke-width="1" stroke-dasharray="" xmlns="http://www.w3.org/2000/svg"></line><text x="193" y="456">a1!</text><line x1="100" x2="158" y1="300" y2="441" stroke="hsl(0, 100%, 50%)" stroke-width="1" stroke-dasharray="" xmlns="http://www.w3.org/2000/svg"></line><line x1="143" x2="140" y1="406" y2="404" stroke="black" stroke-width="1" stroke-dasharray="" xmlns="http://www.w3.org/2000/svg"></line><line x1="143" x2="145" y1="406" y2="402" stroke="black" stroke-width="1" stroke-dasharray="" xmlns="http://www.w3.org/2000/svg"></line><text x="114" y="335">b1!</text><line x1="100" x2="158" y1="300" y2="158" stroke="hsl(243, 100%, 50%)" stroke-width="1" stroke-dasharray="" xmlns="http://www.w3.org/2000/svg"></line><line x1="143" x2="145" y1="193" y2="197" stroke="black" stroke-width="1" stroke-dasharray="" xmlns="http://www.w3.org/2000/svg"></line><line x1="143" x2="140" y1="193" y2="195" stroke="black" stroke-width="1" stroke-dasharray="" xmlns="http://www.w3.org/2000/svg"></line><text x="114" y="264">a2</text><line x1="158" x2="299" y1="158" y2="100" stroke="hsl(162, 100%, 50%)" stroke-width="1" stroke-dasharray="" xmlns="http://www.w3.org/2000/svg"></line><line x1="264" x2="263" y1="114" y2="118" stroke="black" stroke-width="1" stroke-dasharray="" xmlns="http://www.w3.org/2000/svg"></line><line x1="264" x2="260" y1="114" y2="113" stroke="black" stroke-width="1" stroke-dasharray="" xmlns="http://www.w3.org/2000/svg"></line><text x="193" y="143">b2</text><line x1="441" x2="299" y1="158" y2="100" stroke="hsl(243, 100%, 50%)" stroke-width="1" stroke-dasharray="" xmlns="http://www.w3.org/2000/svg"></line><line x1="335" x2="339" y1="114" y2="113" stroke="black" stroke-width="1" stroke-dasharray="" xmlns="http://www.w3.org/2000/svg"></line><line x1="335" x2="336" y1="114" y2="118" stroke="black" stroke-width="1" stroke-dasharray="" xmlns="http://www.w3.org/2000/svg"></line><text x="406" y="143">a2!</text><line x1="500" x2="441" y1="299" y2="158" stroke="hsl(162, 100%, 50%)" stroke-width="1" stroke-dasharray="" xmlns="http://www.w3.org/2000/svg"></line><line x1="456" x2="459" y1="193" y2="195" stroke="black" stroke-width="1" stroke-dasharray="" xmlns="http://www.w3.org/2000/svg"></line><line x1="456" x2="454" y1="193" y2="197" stroke="black" stroke-width="1" stroke-dasharray="" xmlns="http://www.w3.org/2000/svg"></line><text x="485" y="264">b2!</text><line x1="441" x2="314" y1="158" y2="320" stroke="hsl(40, 100%, 50%)" stroke-width="1" stroke-dasharray="" xmlns="http://www.w3.org/2000/svg"></line><line x1="345" x2="345" y1="279" y2="275" stroke="black" stroke-width="1" stroke-dasharray="" xmlns="http://www.w3.org/2000/svg"></line><line x1="345" x2="350" y1="279" y2="279" stroke="black" stroke-width="1" stroke-dasharray="" xmlns="http://www.w3.org/2000/svg"></line><text x="409" y="198">0</text><line x1="314" x2="300" y1="320" y2="500" stroke="hsl(202, 100%, 50%)" stroke-width="1" stroke-dasharray="" xmlns="http://www.w3.org/2000/svg"></line><line x1="303" x2="300" y1="455" y2="451" stroke="black" stroke-width="1" stroke-dasharray="" xmlns="http://www.w3.org/2000/svg"></line><line x1="303" x2="306" y1="455" y2="452" stroke="black" stroke-width="1" stroke-dasharray="" xmlns="http://www.w3.org/2000/svg"></line><text x="310" y="365">1</text><line x1="158" x2="342" y1="441" y2="360" stroke="hsl(202, 100%, 50%)" stroke-width="1" stroke-dasharray="" xmlns="http://www.w3.org/2000/svg"></line><line x1="296" x2="294" y1="380" y2="384" stroke="black" stroke-width="1" stroke-dasharray="" xmlns="http://www.w3.org/2000/svg"></line><line x1="296" x2="292" y1="380" y2="378" stroke="black" stroke-width="1" stroke-dasharray="" xmlns="http://www.w3.org/2000/svg"></line><text x="204" y="421">2</text><line x1="342" x2="299" y1="360" y2="100" stroke="hsl(40, 100%, 50%)" stroke-width="1" stroke-dasharray="" xmlns="http://www.w3.org/2000/svg"></line><line x1="310" x2="313" y1="165" y2="167" stroke="black" stroke-width="1" stroke-dasharray="" xmlns="http://www.w3.org/2000/svg"></line><line x1="310" x2="308" y1="165" y2="168" stroke="black" stroke-width="1" stroke-dasharray="" xmlns="http://www.w3.org/2000/svg"></line><text x="331" y="295">3</text><line x1="441" x2="323" y1="441" y2="334" stroke="hsl(40, 100%, 50%)" stroke-width="1" stroke-dasharray="3" xmlns="http://www.w3.org/2000/svg"></line><line x1="353" x2="357" y1="360" y2="360" stroke="black" stroke-width="1" stroke-dasharray="" xmlns="http://www.w3.org/2000/svg"></line><line x1="353" x2="353" y1="360" y2="365" stroke="black" stroke-width="1" stroke-dasharray="" xmlns="http://www.w3.org/2000/svg"></line><text x="412" y="414">0</text><line x1="323" x2="300" y1="334" y2="500" stroke="hsl(202, 100%, 50%)" stroke-width="1" stroke-dasharray="3" xmlns="http://www.w3.org/2000/svg"></line><line x1="305" x2="303" y1="458" y2="455" stroke="black" stroke-width="1" stroke-dasharray="" xmlns="http://www.w3.org/2000/svg"></line><line x1="305" x2="309" y1="458" y2="455" stroke="black" stroke-width="1" stroke-dasharray="" xmlns="http://www.w3.org/2000/svg"></line><text x="317" y="375">1</text><line x1="158" x2="371" y1="158" y2="401" stroke="hsl(202, 100%, 50%)" stroke-width="1" stroke-dasharray="3" xmlns="http://www.w3.org/2000/svg"></line><line x1="318" x2="313" y1="341" y2="340" stroke="black" stroke-width="1" stroke-dasharray="" xmlns="http://www.w3.org/2000/svg"></line><line x1="318" x2="318" y1="341" y2="336" stroke="black" stroke-width="1" stroke-dasharray="" xmlns="http://www.w3.org/2000/svg"></line><text x="211" y="219">2</text><line x1="371" x2="299" y1="401" y2="100" stroke="hsl(40, 100%, 50%)" stroke-width="1" stroke-dasharray="3" xmlns="http://www.w3.org/2000/svg"></line><line x1="317" x2="321" y1="175" y2="177" stroke="black" stroke-width="1" stroke-dasharray="" xmlns="http://www.w3.org/2000/svg"></line><line x1="317" x2="315" y1="175" y2="179" stroke="black" stroke-width="1" stroke-dasharray="" xmlns="http://www.w3.org/2000/svg"></line><text x="353" y="326">3</text> </svg>