<svg xmlns="http://www.w3.org/2000/svg" width="1200" height="900">
<path d="M 6 750 A 594 594 0 0 1 1194 750" stroke="black" fill="black" stroke-width="2" fill-opacity="0"/>
<path d="M 18 750 A 582 582 0 0 1 1182 750" stroke="red" fill="red" stroke-width="2" fill-opacity="0"/>
<path d="M 30 750 A 18 18 0 0 1 66 750" stroke="black" fill="black" stroke-width="2" fill-opacity="0"/>
<path d="M 42 750 A 6 6 0 0 1 54 750" stroke="green" fill="green" stroke-width="2" fill-opacity="0"/>
<path d="M 78 750 A 18 18 0 0 1 114 750" stroke="blue" fill="blue" stroke-width="2" fill-opacity="0"/>
<path d="M 90 750 A 6 6 0 0 1 102 750" stroke="blue" fill="blue" stroke-width="2" fill-opacity="0"/>
<path d="M 126 750 A 522 522 0 0 1 1170 750" stroke="red" fill="red" stroke-width="2" fill-opacity="0"/>
<path d="M 138 750 A 510 510 0 0 1 1158 750" stroke="blue" fill="blue" stroke-width="2" fill-opacity="0"/>
<path d="M 150 750 A 498 498 0 0 1 1146 750" stroke="red" fill="red" stroke-width="2" fill-opacity="0"/>
<path d="M 198 750 A 468 468 0 0 1 1134 750" stroke="green" fill="green" stroke-width="2" fill-opacity="0"/>
<path d="M 222 750 A 12 12 0 0 1 246 750" stroke="green" fill="green" stroke-width="2" fill-opacity="0"/>
<path d="M 258 750 A 432 432 0 0 1 1122 750" stroke="red" fill="red" stroke-width="2" fill-opacity="0"/>
<path d="M 270 750 A 18 18 0 0 1 306 750" stroke="red" fill="red" stroke-width="2" fill-opacity="0"/>
<path d="M 282 750 A 6 6 0 0 1 294 750" stroke="red" fill="red" stroke-width="2" fill-opacity="0"/>
<path d="M 318 750 A 396 396 0 0 1 1110 750" stroke="green" fill="green" stroke-width="2" fill-opacity="0"/>
<path d="M 330 750 A 306 306 0 0 1 942 750" stroke="green" fill="green" stroke-width="2" fill-opacity="0"/>
<path d="M 342 750 A 294 294 0 0 1 930 750" stroke="black" fill="black" stroke-width="2" fill-opacity="0"/>
<path d="M 354 750 A 204 204 0 0 1 762 750" stroke="green" fill="green" stroke-width="2" fill-opacity="0"/>
<path d="M 366 750 A 18 18 0 0 1 402 750" stroke="red" fill="red" stroke-width="2" fill-opacity="0"/>
<path d="M 378 750 A 6 6 0 0 1 390 750" stroke="green" fill="green" stroke-width="2" fill-opacity="0"/>
<path d="M 414 750 A 6 6 0 0 1 426 750" stroke="red" fill="red" stroke-width="2" fill-opacity="0"/>
<path d="M 438 750 A 144 144 0 0 1 726 750" stroke="red" fill="red" stroke-width="2" fill-opacity="0"/>
<path d="M 450 750 A 66 66 0 0 1 582 750" stroke="red" fill="red" stroke-width="2" fill-opacity="0"/>
<path d="M 462 750 A 54 54 0 0 1 570 750" stroke="blue" fill="blue" stroke-width="2" fill-opacity="0"/>
<path d="M 474 750 A 42 42 0 0 1 558 750" stroke="blue" fill="blue" stroke-width="2" fill-opacity="0"/>
<path d="M 498 750 A 6 6 0 0 1 510 750" stroke="blue" fill="blue" stroke-width="2" fill-opacity="0"/>
<path d="M 522 750 A 6 6 0 0 1 534 750" stroke="blue" fill="blue" stroke-width="2" fill-opacity="0"/>
<path d="M 594 750 A 60 60 0 0 1 714 750" stroke="green" fill="green" stroke-width="2" fill-opacity="0"/>
<path d="M 606 750 A 48 48 0 0 1 702 750" stroke="red" fill="red" stroke-width="2" fill-opacity="0"/>
<path d="M 618 750 A 6 6 0 0 1 630 750" stroke="red" fill="red" stroke-width="2" fill-opacity="0"/>
<path d="M 642 750 A 24 24 0 0 1 690 750" stroke="blue" fill="blue" stroke-width="2" fill-opacity="0"/>
<path d="M 738 750 A 6 6 0 0 1 750 750" stroke="green" fill="green" stroke-width="2" fill-opacity="0"/>
<path d="M 774 750 A 72 72 0 0 1 918 750" stroke="blue" fill="blue" stroke-width="2" fill-opacity="0"/>
<path d="M 798 750 A 18 18 0 0 1 834 750" stroke="blue" fill="blue" stroke-width="2" fill-opacity="0"/>
<path d="M 810 750 A 6 6 0 0 1 822 750" stroke="blue" fill="blue" stroke-width="2" fill-opacity="0"/>
<path d="M 846 750 A 18 18 0 0 1 882 750" stroke="green" fill="green" stroke-width="2" fill-opacity="0"/>
<path d="M 858 750 A 6 6 0 0 1 870 750" stroke="black" fill="black" stroke-width="2" fill-opacity="0"/>
<path d="M 894 750 A 6 6 0 0 1 906 750" stroke="red" fill="red" stroke-width="2" fill-opacity="0"/>
<path d="M 954 750 A 72 72 0 0 1 1098 750" stroke="red" fill="red" stroke-width="2" fill-opacity="0"/>
<path d="M 990 750 A 6 6 0 0 1 1002 750" stroke="black" fill="black" stroke-width="2" fill-opacity="0"/>
<path d="M 1026 750 A 30 30 0 0 1 1086 750" stroke="blue" fill="blue" stroke-width="2" fill-opacity="0"/>
<path d="M 1038 750 A 6 6 0 0 1 1050 750" stroke="black" fill="black" stroke-width="2" fill-opacity="0"/><text x="0" y="762">A</text>
<text x="12" y="762">U</text>
<text x="24" y="762">A</text>
<text x="36" y="762">C</text>
<text x="48" y="762">G</text>
<text x="60" y="762">U</text>
<text x="72" y="762">G</text>
<text x="84" y="762">G</text>
<text x="96" y="762">C</text>
<text x="108" y="762">C</text>
<text x="120" y="762">U</text>
<text x="132" y="762">G</text>
<text x="144" y="762">U</text>
<text x="156" y="762">U</text>
<text x="168" y="762">U</text>
<text x="180" y="762">U</text>
<text x="192" y="762">C</text>
<text x="204" y="762">G</text>
<text x="216" y="762">C</text>
<text x="228" y="762">U</text>
<text x="240" y="762">G</text>
<text x="252" y="762">U</text>
<text x="264" y="762">U</text>
<text x="276" y="762">U</text>
<text x="288" y="762">A</text>
<text x="300" y="762">A</text>
<text x="312" y="762">C</text>
<text x="324" y="762">C</text>
<text x="336" y="762">A</text>
<text x="348" y="762">C</text>
<text x="360" y="762">U</text>
<text x="372" y="762">C</text>
<text x="384" y="762">G</text>
<text x="396" y="762">A</text>
<text x="408" y="762">U</text>
<text x="420" y="762">A</text>
<text x="432" y="762">U</text>
<text x="444" y="762">U</text>
<text x="456" y="762">G</text>
<text x="468" y="762">G</text>
<text x="480" y="762">G</text>
<text x="492" y="762">G</text>
<text x="504" y="762">C</text>
<text x="516" y="762">G</text>
<text x="528" y="762">C</text>
<text x="540" y="762">A</text>
<text x="552" y="762">C</text>
<text x="564" y="762">C</text>
<text x="576" y="762">A</text>
<text x="588" y="762">C</text>
<text x="600" y="762">U</text>
<text x="612" y="762">U</text>
<text x="624" y="762">A</text>
<text x="636" y="762">G</text>
<text x="648" y="762">G</text>
<text x="660" y="762">G</text>
<text x="672" y="762">G</text>
<text x="684" y="762">C</text>
<text x="696" y="762">A</text>
<text x="708" y="762">G</text>
<text x="720" y="762">A</text>
<text x="732" y="762">C</text>
<text x="744" y="762">G</text>
<text x="756" y="762">G</text>
<text x="768" y="762">G</text>
<text x="780" y="762">G</text>
<text x="792" y="762">G</text>
<text x="804" y="762">G</text>
<text x="816" y="762">C</text>
<text x="828" y="762">C</text>
<text x="840" y="762">C</text>
<text x="852" y="762">A</text>
<text x="864" y="762">U</text>
<text x="876" y="762">G</text>
<text x="888" y="762">U</text>
<text x="900" y="762">A</text>
<text x="912" y="762">C</text>
<text x="924" y="762">U</text>
<text x="936" y="762">G</text>
<text x="948" y="762">U</text>
<text x="960" y="762">U</text>
<text x="972" y="762">U</text>
<text x="984" y="762">A</text>
<text x="996" y="762">U</text>
<text x="1008" y="762">U</text>
<text x="1020" y="762">G</text>
<text x="1032" y="762">A</text>
<text x="1044" y="762">U</text>
<text x="1056" y="762">U</text>
<text x="1068" y="762">G</text>
<text x="1080" y="762">C</text>
<text x="1092" y="762">A</text>
<text x="1104" y="762">G</text>
<text x="1116" y="762">A</text>
<text x="1128" y="762">G</text>
<text x="1140" y="762">A</text>
<text x="1152" y="762">C</text>
<text x="1164" y="762">A</text>
<text x="1176" y="762">A</text>
<text x="1188" y="762">U</text>
</svg>