<svg version="1.1" baseProfile="full" width="1000" height="400" xmlns="http://www.w3.org/2000/svg">
           <line x1="140" x2="110" y1="60" y2="111" stroke="green" stroke-width="1" xmlns="http://www.w3.org/2000/svg"></line><line x1="117" x2="116" y1="98" y2="94" stroke="black" stroke-width="1" xmlns="http://www.w3.org/2000/svg"></line><line x1="117" x2="121" y1="98" y2="97" stroke="black" stroke-width="1" xmlns="http://www.w3.org/2000/svg"></line><text x="132" y="72">2</text><line x1="110" x2="50" y1="111" y2="111" stroke="magenta" stroke-width="1" xmlns="http://www.w3.org/2000/svg"></line><line x1="65" x2="68" y1="111" y2="108" stroke="black" stroke-width="1" xmlns="http://www.w3.org/2000/svg"></line><line x1="65" x2="68" y1="111" y2="114" stroke="black" stroke-width="1" xmlns="http://www.w3.org/2000/svg"></line><text x="95" y="111">9</text><line x1="20" x2="50" y1="60" y2="111" stroke="green" stroke-width="1" xmlns="http://www.w3.org/2000/svg"></line><line x1="42" x2="38" y1="98" y2="97" stroke="black" stroke-width="1" xmlns="http://www.w3.org/2000/svg"></line><line x1="42" x2="43" y1="98" y2="94" stroke="black" stroke-width="1" xmlns="http://www.w3.org/2000/svg"></line><text x="27" y="72">2</text><line x1="20" x2="49" y1="60" y2="8" stroke="darkcyan" stroke-width="1" xmlns="http://www.w3.org/2000/svg"></line><line x1="42" x2="43" y1="21" y2="25" stroke="black" stroke-width="1" xmlns="http://www.w3.org/2000/svg"></line><line x1="42" x2="38" y1="21" y2="22" stroke="black" stroke-width="1" xmlns="http://www.w3.org/2000/svg"></line><text x="27" y="47">11</text><line x1="49" x2="110" y1="8" y2="8" stroke="grey" stroke-width="1" xmlns="http://www.w3.org/2000/svg"></line><line x1="95" x2="92" y1="8" y2="11" stroke="black" stroke-width="1" xmlns="http://www.w3.org/2000/svg"></line><line x1="95" x2="92" y1="8" y2="5" stroke="black" stroke-width="1" xmlns="http://www.w3.org/2000/svg"></line><text x="64" y="8">8</text><line x1="110" x2="140" y1="8" y2="59" stroke="gold" stroke-width="1" xmlns="http://www.w3.org/2000/svg"></line><line x1="132" x2="128" y1="47" y2="45" stroke="black" stroke-width="1" xmlns="http://www.w3.org/2000/svg"></line><line x1="132" x2="133" y1="47" y2="42" stroke="black" stroke-width="1" xmlns="http://www.w3.org/2000/svg"></line><text x="117" y="21">12</text><line x1="140" x2="110" y1="210" y2="261" stroke="blue" stroke-width="1" xmlns="http://www.w3.org/2000/svg"></line><line x1="117" x2="116" y1="248" y2="244" stroke="black" stroke-width="1" xmlns="http://www.w3.org/2000/svg"></line><line x1="117" x2="121" y1="248" y2="247" stroke="black" stroke-width="1" xmlns="http://www.w3.org/2000/svg"></line><text x="132" y="222">1</text><line x1="110" x2="50" y1="261" y2="261" stroke="magenta" stroke-width="1" xmlns="http://www.w3.org/2000/svg"></line><line x1="65" x2="68" y1="261" y2="258" stroke="black" stroke-width="1" xmlns="http://www.w3.org/2000/svg"></line><line x1="65" x2="68" y1="261" y2="264" stroke="black" stroke-width="1" xmlns="http://www.w3.org/2000/svg"></line><text x="95" y="261">9</text><line x1="20" x2="50" y1="210" y2="261" stroke="blue" stroke-width="1" xmlns="http://www.w3.org/2000/svg"></line><line x1="42" x2="38" y1="248" y2="247" stroke="black" stroke-width="1" xmlns="http://www.w3.org/2000/svg"></line><line x1="42" x2="43" y1="248" y2="244" stroke="black" stroke-width="1" xmlns="http://www.w3.org/2000/svg"></line><text x="27" y="222">1</text><line x1="20" x2="49" y1="210" y2="158" stroke="darkcyan" stroke-width="1" xmlns="http://www.w3.org/2000/svg"></line><line x1="42" x2="43" y1="171" y2="175" stroke="black" stroke-width="1" xmlns="http://www.w3.org/2000/svg"></line><line x1="42" x2="38" y1="171" y2="172" stroke="black" stroke-width="1" xmlns="http://www.w3.org/2000/svg"></line><text x="27" y="197">11</text><line x1="49" x2="110" y1="158" y2="158" stroke="black" stroke-width="1" xmlns="http://www.w3.org/2000/svg"></line><line x1="95" x2="92" y1="158" y2="161" stroke="black" stroke-width="1" xmlns="http://www.w3.org/2000/svg"></line><line x1="95" x2="92" y1="158" y2="155" stroke="black" stroke-width="1" xmlns="http://www.w3.org/2000/svg"></line><text x="64" y="158">3</text><line x1="110" x2="140" y1="158" y2="209" stroke="gold" stroke-width="1" xmlns="http://www.w3.org/2000/svg"></line><line x1="132" x2="128" y1="197" y2="195" stroke="black" stroke-width="1" xmlns="http://www.w3.org/2000/svg"></line><line x1="132" x2="133" y1="197" y2="192" stroke="black" stroke-width="1" xmlns="http://www.w3.org/2000/svg"></line><text x="117" y="171">12</text><line x1="260" x2="290" y1="111" y2="60" stroke="grey" stroke-width="1" xmlns="http://www.w3.org/2000/svg"></line><line x1="282" x2="283" y1="72" y2="77" stroke="black" stroke-width="1" xmlns="http://www.w3.org/2000/svg"></line><line x1="282" x2="278" y1="72" y2="74" stroke="black" stroke-width="1" xmlns="http://www.w3.org/2000/svg"></line><text x="267" y="98">8</text><line x1="260" x2="200" y1="111" y2="111" stroke="red" stroke-width="1" xmlns="http://www.w3.org/2000/svg"></line><line x1="215" x2="218" y1="111" y2="108" stroke="black" stroke-width="1" xmlns="http://www.w3.org/2000/svg"></line><line x1="215" x2="218" y1="111" y2="114" stroke="black" stroke-width="1" xmlns="http://www.w3.org/2000/svg"></line><text x="245" y="111">6</text><line x1="200" x2="170" y1="111" y2="60" stroke="cyan" stroke-width="1" xmlns="http://www.w3.org/2000/svg"></line><line x1="177" x2="181" y1="72" y2="74" stroke="black" stroke-width="1" xmlns="http://www.w3.org/2000/svg"></line><line x1="177" x2="176" y1="72" y2="77" stroke="black" stroke-width="1" xmlns="http://www.w3.org/2000/svg"></line><text x="192" y="98">5</text><line x1="170" x2="199" y1="60" y2="8" stroke="brown" stroke-width="1" xmlns="http://www.w3.org/2000/svg"></line><line x1="192" x2="193" y1="21" y2="25" stroke="black" stroke-width="1" xmlns="http://www.w3.org/2000/svg"></line><line x1="192" x2="188" y1="21" y2="22" stroke="black" stroke-width="1" xmlns="http://www.w3.org/2000/svg"></line><text x="177" y="47">7</text><line x1="260" x2="199" y1="8" y2="8" stroke="cyan" stroke-width="1" xmlns="http://www.w3.org/2000/svg"></line><line x1="214" x2="217" y1="8" y2="5" stroke="black" stroke-width="1" xmlns="http://www.w3.org/2000/svg"></line><line x1="214" x2="217" y1="8" y2="11" stroke="black" stroke-width="1" xmlns="http://www.w3.org/2000/svg"></line><text x="245" y="8">5</text><line x1="260" x2="290" y1="8" y2="59" stroke="orange" stroke-width="1" xmlns="http://www.w3.org/2000/svg"></line><line x1="282" x2="278" y1="47" y2="45" stroke="black" stroke-width="1" xmlns="http://www.w3.org/2000/svg"></line><line x1="282" x2="283" y1="47" y2="42" stroke="black" stroke-width="1" xmlns="http://www.w3.org/2000/svg"></line><text x="267" y="21">4</text><line x1="260" x2="290" y1="261" y2="210" stroke="black" stroke-width="1" xmlns="http://www.w3.org/2000/svg"></line><line x1="282" x2="283" y1="222" y2="227" stroke="black" stroke-width="1" xmlns="http://www.w3.org/2000/svg"></line><line x1="282" x2="278" y1="222" y2="224" stroke="black" stroke-width="1" xmlns="http://www.w3.org/2000/svg"></line><text x="267" y="248">3</text><line x1="260" x2="200" y1="261" y2="261" stroke="red" stroke-width="1" xmlns="http://www.w3.org/2000/svg"></line><line x1="215" x2="218" y1="261" y2="258" stroke="black" stroke-width="1" xmlns="http://www.w3.org/2000/svg"></line><line x1="215" x2="218" y1="261" y2="264" stroke="black" stroke-width="1" xmlns="http://www.w3.org/2000/svg"></line><text x="245" y="261">6</text><line x1="200" x2="170" y1="261" y2="210" stroke="yellow" stroke-width="1" xmlns="http://www.w3.org/2000/svg"></line><line x1="177" x2="181" y1="222" y2="224" stroke="black" stroke-width="1" xmlns="http://www.w3.org/2000/svg"></line><line x1="177" x2="176" y1="222" y2="227" stroke="black" stroke-width="1" xmlns="http://www.w3.org/2000/svg"></line><text x="192" y="248">10</text><line x1="170" x2="199" y1="210" y2="158" stroke="brown" stroke-width="1" xmlns="http://www.w3.org/2000/svg"></line><line x1="192" x2="193" y1="171" y2="175" stroke="black" stroke-width="1" xmlns="http://www.w3.org/2000/svg"></line><line x1="192" x2="188" y1="171" y2="172" stroke="black" stroke-width="1" xmlns="http://www.w3.org/2000/svg"></line><text x="177" y="197">7</text><line x1="260" x2="199" y1="158" y2="158" stroke="yellow" stroke-width="1" xmlns="http://www.w3.org/2000/svg"></line><line x1="214" x2="217" y1="158" y2="155" stroke="black" stroke-width="1" xmlns="http://www.w3.org/2000/svg"></line><line x1="214" x2="217" y1="158" y2="161" stroke="black" stroke-width="1" xmlns="http://www.w3.org/2000/svg"></line><text x="245" y="158">10</text><line x1="260" x2="290" y1="158" y2="209" stroke="orange" stroke-width="1" xmlns="http://www.w3.org/2000/svg"></line><line x1="282" x2="278" y1="197" y2="195" stroke="black" stroke-width="1" xmlns="http://www.w3.org/2000/svg"></line><line x1="282" x2="283" y1="197" y2="192" stroke="black" stroke-width="1" xmlns="http://www.w3.org/2000/svg"></line><text x="267" y="171">4</text> </svg>